<svg width="21" height="17" viewBox="0 0 21 17" fill="none" xmlns="http://www.w3.org/2000/svg">
<path d="M17.7088 1.84C16.3708 1.214 14.9402 0.759052 13.4445 0.5C13.2609 0.832095 13.0463 1.27877 12.8983 1.6341C11.3084 1.39499 9.73307 1.39499 8.17238 1.6341C8.02445 1.27877 7.80498 0.832095 7.61966 0.5C6.12238 0.759052 4.69013 1.21567 3.35218 1.84331C0.653505 5.92136 -0.0780596 9.89811 0.287724 13.8184C2.07762 15.155 3.81225 15.967 5.51761 16.4984C5.93867 15.9189 6.3142 15.3028 6.63771 14.6536C6.02157 14.4195 5.43145 14.1306 4.87385 13.7952C5.02177 13.6856 5.16647 13.571 5.30627 13.4531C8.70723 15.0438 12.4025 15.0438 15.7628 13.4531C15.9042 13.571 16.0489 13.6856 16.1952 13.7952C15.636 14.1322 15.0442 14.4211 14.4281 14.6553C14.7516 15.3028 15.1255 15.9205 15.5482 16.5C17.2552 15.9687 18.9914 15.1567 20.7813 13.8184C21.2105 9.27378 20.0482 5.33355 17.7088 1.84ZM7.10104 11.4075C6.08011 11.4075 5.24286 10.4543 5.24286 9.2937C5.24286 8.13306 6.06223 7.17831 7.10104 7.17831C8.13988 7.17831 8.97711 8.13138 8.95923 9.2937C8.96084 10.4543 8.13988 11.4075 7.10104 11.4075ZM13.968 11.4075C12.9471 11.4075 12.1098 10.4543 12.1098 9.2937C12.1098 8.13306 12.9292 7.17831 13.968 7.17831C15.0068 7.17831 15.8441 8.13138 15.8262 9.2937C15.8262 10.4543 15.0068 11.4075 13.968 11.4075Z" fill="#23272A"/>
</svg>
