<svg width="649" height="380" viewBox="0 0 649 380" fill="none" xmlns="http://www.w3.org/2000/svg">
<path d="M1.5625 40.9219V145.922H124.453V112.641H42.5V40.9219H1.5625ZM208.359 71.4688L222.734 102.484H193.906L208.359 71.4688ZM127.656 146.078H173.75L182.031 128.109H234.609L242.891 146.078H288.984L232.656 41.0781H183.984L127.656 146.078ZM361.328 74.3594L292.188 112.719V146.078H427.891V112.719H356.25L427.891 74.3594V41.0781H292.188V74.3594H361.328ZM479.766 41.0781H431.094L490 110.219V146.078H530.938V110.219L589.844 41.0781H541.25L510.469 78.7344L479.766 41.0781ZM1.5625 230.922V335.922H124.453V302.641H42.5V230.922H1.5625ZM138.438 230.922V335.922H179.375V230.922H138.438ZM263.125 228.344C223.594 228.422 191.25 239.828 191.406 279.594V287.25C191.25 326.938 223.594 338.422 263.125 338.5C302.578 338.422 334.922 326.938 334.766 287.25V279.594C334.766 239.906 302.656 228.344 263.125 228.344ZM293.828 284.672C294.062 301.859 279.844 304.984 263.125 305.219C246.328 304.984 232.109 301.859 232.344 284.672V282.094C232.109 264.984 246.328 261.859 263.125 261.625C279.844 261.859 294.062 264.984 293.828 282.094V284.672ZM449.453 286.547L403.359 230.922H347.031V335.922H387.969V271.781L444.375 335.922H490.469V230.922H449.453V286.547ZM547.266 265.531C547.266 257.172 562.891 255.297 575.625 255.297C588.438 255.297 599.297 257.25 603.984 265.531H646.875C642.969 232.719 612.422 228.578 575.625 228.344C538.75 228.344 504.375 235.531 504.375 265.531C504.297 291.781 545.469 293.812 574.766 295.297C591.25 296.078 603.984 296.781 603.984 301.391C603.984 309.516 588.359 311.625 575.625 311.625C562.812 311.625 551.953 309.516 547.266 301.391H504.375C508.281 333.969 538.828 338.422 575.625 338.5C612.5 338.5 646.875 331.391 646.875 301.391C646.953 275.062 605.781 273.031 576.484 271.547C560 270.766 547.266 270.141 547.266 265.531Z" fill="#66E848"/>
<path d="M314.182 300.444C318.903 292.807 318.96 292.173 310.434 291.407C299.452 290.418 290.437 286.034 282.481 278.712C274.911 271.746 267.363 264.733 259.423 258.209C256.028 255.419 251.799 253.475 247.685 251.796C245.154 250.763 243.591 249.917 242.85 246.956C239.796 234.735 233.196 224.303 224.763 215.215C221.558 211.763 216.773 209.75 212.629 207.21C208.16 204.469 203.428 202.123 199.139 199.135C196.464 197.271 194.377 194.552 192.06 192.184C191.432 191.541 191.037 190.628 190.338 190.102C184.383 185.616 178.381 181.191 172.101 177.144C169.482 174.661 174.036 167.057 165.833 167.892C154.613 142.841 131.543 130.096 110 115.74C110.303 115.272 110.607 114.804 110.91 114.336C120.236 120.466 130.354 125.684 138.705 132.939C152.001 144.49 167.337 151.731 183.453 157.778C187.27 159.21 189.587 161.002 191.18 165.01C195.68 176.337 204.613 184.122 214.079 191.239C218.262 194.386 222.782 197.082 227.103 200.048C228.413 200.947 230.006 201.83 230.722 203.133C233.796 208.735 238.916 210.91 244.66 212.545C246.637 213.109 248.632 214.634 249.97 216.255C258.501 226.57 267.635 235.87 281.64 238.333C283.338 238.631 284.968 239.664 286.488 240.588C296.844 246.875 307.295 253.02 317.441 259.632C323.274 263.434 328.887 264.805 335.712 260.533C341.755 274.294 353.497 282.254 364.613 290.911C366.089 292.06 366.86 294.804 366.987 296.87C367.338 302.614 369.308 307.155 374.503 310.601C374.879 307.097 375.177 304.307 375.604 300.332C381.718 305.972 386.63 310.502 391.646 315.127C366.886 320.71 334.086 314.518 314.182 300.444Z" fill="#EBE7E3"/>
<path d="M215.326 78.2337C213.031 73.6501 211.566 68.9764 208.686 65.4602C205.797 61.9333 201.499 59.5621 198.086 56C208.446 60.0367 218.911 63.8282 229.128 68.2037C235.172 70.7919 241.109 71.9281 247.585 70.7037C248.904 70.4549 251.289 70.8854 251.735 71.7481C255.093 78.2602 260.693 80.8537 267.365 81.3089C267.111 83.7966 266.888 85.9967 266.583 88.9871C271.118 88.1103 274.885 87.7239 278.424 86.6089C282.633 85.2821 286.118 86.0425 289.592 88.5443C297.365 94.1424 305.23 99.61 313.07 105.113C314.386 106.037 315.728 107.581 317.114 107.645C331.585 108.31 342.403 116.701 353.322 124.709C357.476 127.756 361.163 130.727 366.848 129.434C369.213 128.896 371.872 129.656 374.398 129.825C380.786 130.254 385.954 131.71 390.368 137.67C397.922 147.864 409.564 153.285 420.43 159.459C422.929 160.879 424.752 163.774 426.428 166.295C430.192 171.959 433.58 177.873 437.299 183.568C439.118 186.352 441.126 189.081 443.442 191.451C445.019 193.065 447.146 194.346 449.26 195.186C452.946 196.648 456.814 197.656 460.606 198.856C465.856 200.517 471.287 201.504 473.029 208.349C473.542 210.364 477.112 212.345 479.624 212.981C490.828 215.812 500.696 220.518 507.539 230.288C508.033 230.994 508.805 231.952 509.504 232C516.4 232.478 518.276 237.423 521.086 242.81C527.86 255.8 535.139 269.571 550.615 273.542C560.576 276.098 565.837 281.832 570.749 289.909C575.221 297.267 581.202 303.708 586.532 310.539C587.708 312.046 588.948 313.503 590.999 316.01C587.648 315.691 585.243 316.116 583.578 315.197C572.937 309.331 562.401 303.27 551.996 296.998C550.424 296.051 549.177 293.81 548.698 291.935C546.848 284.685 543.904 278.95 535.572 277.229C533.045 276.707 530.47 274.022 528.893 271.672C517.599 254.844 503.513 241.126 482.791 238.57C472.264 237.271 465.98 234.126 460.301 224.944C453.2 213.464 440.888 207.144 428.193 202.98C417.943 199.618 407.269 197.49 396.708 195.163C393.772 194.515 392.128 193.587 390.92 190.637C384.879 175.898 372.731 168.778 358.015 165.106C357.16 164.893 356.215 164.946 355.324 165.02C354.825 165.062 354.352 165.403 353.555 165.74C353.627 166.551 353.546 167.446 353.819 168.213C354.081 168.947 354.71 169.549 355.693 170.93C353.604 170.424 352.428 170.025 351.22 169.866C345.169 169.072 341.89 166.631 340.689 159.684C338.938 149.556 331.537 142.274 322.83 137.528C312.109 131.685 300.753 126.946 289.444 122.276C285.708 120.732 283.573 119.307 282.1 115.115C279.312 107.177 275.086 99.7441 271.37 91.9141C268.899 92.5969 267.163 93.5867 265.543 93.4244C261.425 93.0098 257.005 92.858 253.347 91.1908C246.063 87.8721 240.834 80.8855 232.303 79.3576C230.574 79.0488 229.35 75.919 227.206 73.2249C223.924 74.6081 219.899 76.3053 215.326 78.2337Z" fill="#EBE7E3"/>
<path d="M491.26 315.989C484.248 315.989 477.234 316.076 470.227 315.901C469.104 315.873 467.816 314.868 466.936 313.984C462.039 309.065 458.013 302.736 452.248 299.335C441.094 292.757 429.012 287.739 417.21 282.298C416.026 281.751 413.694 282.229 412.636 283.117C406.151 288.545 398.507 289.947 389.966 290.422C388.205 278.926 382.604 269.337 376.093 260.189C375.365 259.164 374.737 257.972 373.777 257.222C361.15 247.362 348.471 237.566 336.075 227.963C334.738 232.873 334.909 233.15 348.066 248.436C342.564 242.977 336.377 238.041 331.716 231.94C324.492 222.485 315.612 216.201 304.147 213.369C302.927 213.067 301.807 212.36 300.586 212.067C293.565 210.387 289.163 207.067 286.815 199.258C283.603 188.572 274.151 182.538 264.802 177.048C262.233 175.54 260.242 172.974 257.599 171.687C254.147 170.004 250.238 169.283 246.672 167.799C245.044 167.122 243.483 165.828 242.389 164.426C240.638 162.179 239.86 158.785 237.692 157.318C229.141 151.528 226.668 142.054 222.318 133.694C222.025 133.129 221.436 132.718 219.807 132.586C220.748 137.068 221.686 141.549 222.626 146.032C222.341 146.14 222.057 146.248 221.771 146.357C219.109 141.133 216.449 135.909 213.668 130.45C211.945 131.544 210.468 132.482 208.63 133.648C200.568 121.352 188.984 114.496 175.132 110.447C169.704 108.86 167.33 110.128 165.635 116.51C150.338 99.0202 135.771 82.3641 121.203 65.7081C121.593 65.306 121.983 64.9021 122.373 64.5C126.478 67.4753 130.304 70.9726 134.737 73.3324C152.256 82.6516 169.823 91.9038 187.659 100.592C197.342 105.308 206.649 110.107 213.66 118.639C219.003 125.142 225.682 128.9 234.626 129.475C240.244 129.837 245.681 133.002 251.972 135.175C250.31 137.602 249.352 138.643 248.807 139.868C247.385 143.062 248.888 144.547 252.455 144.54C254.953 144.535 257.567 145.27 259.929 146.189C269.256 149.821 278.503 153.657 288.874 157.861C290.34 169.791 300.573 173.232 312.19 174.523C315.66 174.909 317.105 175.99 317.69 179.501C318.925 186.912 322.795 192.145 330.284 195.041C340.48 198.985 350.405 203.408 361.307 200.651C366.897 207.043 372.316 213.24 377.637 219.323C376.989 220.856 376.285 222.522 375.583 224.187C377.437 224.552 379.297 224.893 381.144 225.286C387.468 226.635 393.79 228.004 399.979 230.198C395.164 231.82 389.392 230.674 387.597 238.14C402.72 236.131 415.409 241.381 427.768 248.004C431.106 249.792 433.23 251.979 434.359 255.896C437.294 266.073 443.791 274.346 451.354 281.325C462.22 291.355 473.923 300.483 485.303 309.954C487.353 311.66 489.569 313.166 491.708 314.764C491.557 315.173 491.408 315.582 491.26 315.989Z" fill="#EBE7E3"/>
</svg>
