<svg width="43" height="32" viewBox="0 0 43 32" fill="none" xmlns="http://www.w3.org/2000/svg">
<path d="M31.3344 27.56C31.0986 27.56 30.8627 27.4667 30.6765 27.2667L22.5822 18.5734C21.2662 17.16 21.2662 14.84 22.5822 13.4267L30.6765 4.73336C31.0365 4.34669 31.6324 4.34669 31.9924 4.73336C32.3524 5.12003 32.3524 5.76003 31.9924 6.14669L23.8981 14.84C23.3022 15.48 23.3022 16.52 23.8981 17.16L31.9924 25.8534C32.3524 26.24 32.3524 26.88 31.9924 27.2667C31.8062 27.4534 31.5703 27.56 31.3344 27.56Z" fill="#292D32"/>
<path d="M11.1731 4.43998C11.409 4.43998 11.6449 4.53331 11.8311 4.73331L19.9254 13.4266C21.2413 14.84 21.2413 17.16 19.9254 18.5733L11.8311 27.2666C11.4711 27.6533 10.8752 27.6533 10.5152 27.2666C10.1551 26.88 10.1551 26.24 10.5152 25.8533L18.6095 17.16C19.2053 16.52 19.2053 15.48 18.6095 14.84L10.5152 6.14664C10.1551 5.75998 10.1551 5.11998 10.5152 4.73331C10.7014 4.54664 10.9373 4.43998 11.1731 4.43998Z" fill="#292D32"/>
</svg>
