<svg width="148" height="66" viewBox="0 0 148 66" fill="none" xmlns="http://www.w3.org/2000/svg">
<path d="M66.6609 63.1116C64.5255 62.3205 63.8906 59.2141 61.6194 59.0476C58.2431 58.7995 55.4715 57.6999 53.0257 55.8633C50.6986 54.1161 48.378 52.357 45.9371 50.7206C44.8933 50.0208 43.5932 49.5332 42.3282 49.112C41.5502 48.8529 41.0698 48.6408 40.8421 47.8981C39.903 44.8325 37.8742 42.216 35.2814 39.9365C34.2962 39.0706 32.8253 38.5658 31.5511 37.9285C30.1772 37.2411 28.7225 36.6525 27.4039 35.9032C26.5814 35.4355 25.94 34.7535 25.2276 34.1596C25.0345 33.9984 24.9131 33.7694 24.6984 33.6374C22.9876 32.5859 21.2646 31.548 19.4708 30.5883C19.219 30.4535 18.9983 30.3805 18.888 30.117C18.1386 28.3274 16.6056 26.931 15.376 25.4301C11.6455 20.8761 5.79083 18.1213 0.232181 15.1111C0.110887 15.0454 0.0786061 14.8862 0.164419 14.7782C0.231205 14.6942 0.34848 14.67 0.443268 14.7204C3.26474 16.2206 6.30614 17.514 8.82469 19.2992C12.9123 22.1965 17.6271 24.0128 22.5817 25.5296C23.755 25.8888 24.4674 26.3383 24.957 27.3437C26.3407 30.1847 29.0869 32.1374 31.9968 33.9226C33.2829 34.7118 34.6725 35.3881 36.0009 36.1321C36.4037 36.3576 36.8933 36.579 37.1135 36.9058C38.0585 38.3111 39.6325 38.8567 41.3984 39.2668C42.0062 39.4081 42.6194 39.7908 43.0309 40.1973C45.6535 42.7846 48.4615 45.1173 52.767 45.7351C53.2892 45.8099 53.7901 46.069 54.2575 46.3006C57.4413 47.8777 60.6543 49.4189 63.7735 51.0775C64.0734 51.237 64.3714 51.3794 64.6695 51.501C67.1878 52.5281 70.4498 53.2674 72.5314 55.0176C74.2599 56.471 76.2998 57.6678 78.2754 58.9231C78.7293 59.2114 78.9662 59.8997 79.0052 60.4178C79.0873 61.5132 79.4571 62.4343 80.3317 63.1929C80.7662 63.5697 81.3913 63.2892 81.4661 62.719C81.5478 62.0962 82.2759 61.754 82.7777 62.1316C83.1187 62.3882 83.4487 62.6366 83.7708 62.8789C84.8466 63.6885 84.4351 65.3355 83.0917 65.4262C77.6609 65.7929 71.5606 64.9268 66.6609 63.1116Z" fill="#C13541"/>
<path d="M34.5691 4.82393C33.3766 5.23417 31.9636 4.78202 31.3237 3.69528C31.0411 3.21537 30.7332 2.76538 30.3392 2.37289C29.7103 1.74642 30.0857 0.941208 30.9331 1.20569C32.8418 1.80141 34.7465 2.40506 36.6239 3.06103C38.482 3.71024 40.3071 3.99523 42.298 3.68811C42.7036 3.62571 43.4367 3.73369 43.5738 3.95009C44.458 5.34897 45.8475 6.02696 47.5168 6.26453C47.9805 6.33053 48.3349 6.69972 48.277 7.16453C48.2105 7.69841 48.6693 8.19256 49.2022 8.11923C50.1427 7.98984 50.9797 7.88301 51.779 7.67759C53.0727 7.3448 54.1441 7.53553 55.2122 8.16305C57.6017 9.56722 60.0199 10.9386 62.43 12.3189C62.8345 12.5508 63.2471 12.938 63.6733 12.954C68.1221 13.1208 71.4479 15.2255 74.8047 17.2342C76.0816 17.9985 77.2153 18.7437 78.9629 18.4193C79.6899 18.2843 80.5076 18.4751 81.284 18.5175C83.2479 18.6251 84.8365 18.9902 86.1937 20.4851C88.5159 23.0421 92.095 24.402 95.4355 25.9504C96.2038 26.3067 96.7645 27.0329 97.2795 27.6652C98.4366 29.0858 99.4782 30.5692 100.622 31.9977C101.181 32.696 101.798 33.3806 102.51 33.9749C102.995 34.3799 103.649 34.7011 104.299 34.9118C105.432 35.2787 106.621 35.5314 107.787 35.8323C109.401 36.2491 111.07 36.4965 111.606 38.2136C111.764 38.7189 112.861 39.2159 113.633 39.3752C117.078 40.0855 120.112 41.2658 122.215 43.7165C122.367 43.8935 122.605 44.1338 122.819 44.1458C124.939 44.2657 125.516 45.5062 126.38 46.8572C128.463 50.1156 130.7 53.5696 135.458 54.5658C138.521 55.207 140.138 56.6453 141.648 58.6712C143.023 60.5166 144.862 62.1323 146.5 63.8458C146.96 64.3265 146.59 65.2409 145.936 65.1179C145.811 65.0944 145.697 65.0613 145.592 65.0141C142.321 63.5427 139.082 62.0225 135.883 60.4493C135.4 60.2117 135.016 59.6497 134.869 59.1792C134.3 57.3609 133.395 55.9222 130.834 55.4907C130.057 55.3597 129.265 54.6861 128.78 54.0967C125.308 49.8758 120.978 46.435 114.607 45.7938C111.371 45.4681 109.439 44.6791 107.693 42.3761C105.51 39.4965 101.725 37.9113 97.8223 36.8669C94.671 36.0235 91.3896 35.4897 88.1429 34.906C87.2401 34.7436 86.7348 34.5109 86.3634 33.7709C84.5063 30.074 80.7716 28.2879 76.2475 27.367C75.9845 27.3134 75.6939 27.3267 75.4201 27.3453C75.0847 27.3685 74.8311 27.7769 74.9381 28.0956C74.9439 28.1127 74.9503 28.1296 74.9576 28.1463C75.0742 28.4137 74.943 28.7022 74.6573 28.6435C74.4773 28.6065 74.3187 28.5781 74.1584 28.5609C72.2981 28.3618 71.2901 27.7493 70.9209 26.0071C70.3825 23.4664 68.1074 21.6401 65.4306 20.4497C62.1345 18.984 58.6433 17.7953 55.1667 16.6239C54.0183 16.2367 53.3617 15.8791 52.9089 14.8277C52.2834 13.3748 51.4226 11.9894 50.559 10.5835C49.9862 9.65083 48.9096 9.47624 47.8187 9.38711C46.5527 9.28311 45.1939 9.24505 44.0694 8.82686C41.8301 7.99444 40.2225 6.24199 37.5998 5.85875C37.4371 5.83504 37.2889 5.74496 37.1427 5.61199C36.3729 4.91191 35.5531 4.48545 34.5691 4.82393Z" fill="#C13541"/>
<path d="M117.269 65.0828C117.234 65.1619 117.155 65.2126 117.069 65.2127C114.96 65.2136 112.852 65.2334 110.745 65.1905C110.4 65.1834 110.004 64.9313 109.733 64.7097C108.228 63.4759 106.99 61.8882 105.218 61.0353C101.789 59.3852 98.0741 58.1266 94.446 56.7619C94.0821 56.6248 93.3651 56.7447 93.0397 56.9672C92.2075 57.5356 91.3131 57.928 90.3625 58.201C87.9679 58.8886 85.7638 56.9178 84.4821 54.7814C83.7344 53.535 82.8048 52.3618 81.8055 51.2163C81.5815 50.9592 81.3884 50.6602 81.0934 50.4722C79.0273 49.1558 76.9567 47.844 74.8971 46.5417C72.1538 44.8071 70.6074 45.8203 72.9626 48.0536C73.0366 48.1238 73.1121 48.1954 73.189 48.2683C71.4975 46.8991 69.5955 45.6609 68.1627 44.1307C65.9419 41.7591 63.2118 40.1829 59.6872 39.4725C59.312 39.3968 58.9676 39.2194 58.5923 39.146C56.4338 38.7244 55.0807 37.8919 54.3589 35.933C53.3713 33.2526 50.4655 31.7393 47.5912 30.3621C46.8016 29.9839 46.1893 29.3403 45.3769 29.0173C44.3156 28.5953 43.1138 28.4144 42.0177 28.0423C41.5172 27.8725 41.0372 27.5477 40.701 27.1961C40.1624 26.6325 39.9233 25.7813 39.2568 25.4133C36.6281 23.9609 35.8678 21.5845 34.5304 19.4876C34.3058 19.1345 33.8659 19.6269 33.9701 20.0322C34.1759 20.8331 34.3815 21.634 34.5874 22.4351C34.6086 22.5176 34.5613 22.6021 34.4799 22.6273C34.4106 22.6488 34.3355 22.621 34.297 22.5595C33.6579 21.5361 33.0185 20.5117 32.3609 19.4583C32.0844 19.0154 31.5286 18.8515 31.065 19.0917C30.6416 19.311 30.1105 19.206 29.7902 18.8527C27.3457 16.1563 23.9867 14.6018 20.0243 13.6567C18.2994 13.2451 15.619 13.7918 14.3223 12.5821C10.6924 9.19579 7.1731 5.9128 3.65598 2.63184C3.54371 2.52711 3.54826 2.34772 3.66563 2.24875C3.74873 2.17868 3.86709 2.16876 3.96019 2.22486C5.16377 2.95003 6.29892 3.77978 7.60555 4.34726C12.9914 6.68478 18.3919 9.00549 23.8753 11.1846C26.8521 12.3676 29.7134 13.5713 31.8687 15.7115C33.5114 17.3425 35.5646 18.2852 38.3142 18.4295C39.5929 18.4966 40.841 18.9492 42.1877 19.4009C42.8679 19.629 43.0173 20.4065 42.6739 21.0364C42.2368 21.8375 42.6989 22.21 43.7955 22.2083C44.5634 22.2069 45.3671 22.3914 46.0933 22.6219C48.0594 23.2464 50.014 23.8951 52.0764 24.5812C53.8644 25.1761 55.0205 26.986 56.531 28.1125C57.8769 29.1163 59.9359 29.527 62.1597 29.7287C63.2265 29.8255 63.6706 30.0967 63.8507 30.9775C64.2303 32.8364 65.4202 34.1489 67.7223 34.8753C70.0388 35.6063 72.3096 36.4029 74.6898 36.49C76.3097 36.5493 77.9641 36.9396 79.1494 38.0454C80.0868 38.9199 81.0103 39.7815 81.924 40.6338C82.1345 40.8302 82.1949 41.1302 82.0626 41.3859C81.8617 41.774 82.093 42.256 82.5247 42.3244C82.803 42.3685 83.081 42.4135 83.3581 42.4616C84.2426 42.6156 85.1269 42.7705 86.0074 42.9455C86.9093 43.1248 86.86 43.969 86.1187 44.5132C85.5946 44.898 86.0554 45.6106 86.7052 45.588C90.7648 45.4467 94.2695 46.6637 97.6918 48.1599C98.7179 48.6084 99.3708 49.157 99.7179 50.1395C100.62 52.692 102.618 54.7672 104.943 56.5177C108.283 59.0335 111.881 61.3233 115.38 63.6988C115.957 64.0906 116.577 64.4405 117.183 64.8045C117.278 64.8617 117.314 64.9815 117.269 65.0828Z" fill="#C13541"/>
</svg>
