<svg width="649" height="380" viewBox="0 0 649 380" fill="none" xmlns="http://www.w3.org/2000/svg">
<path d="M1.5625 40.9219V145.922H124.453V112.641H42.5V40.9219H1.5625ZM208.359 71.4688L222.734 102.484H193.906L208.359 71.4688ZM127.656 146.078H173.75L182.031 128.109H234.609L242.891 146.078H288.984L232.656 41.0781H183.984L127.656 146.078ZM361.328 74.3594L292.188 112.719V146.078H427.891V112.719H356.25L427.891 74.3594V41.0781H292.188V74.3594H361.328ZM479.766 41.0781H431.094L490 110.219V146.078H530.938V110.219L589.844 41.0781H541.25L510.469 78.7344L479.766 41.0781ZM1.5625 230.922V335.922H124.453V302.641H42.5V230.922H1.5625ZM138.438 230.922V335.922H179.375V230.922H138.438ZM263.125 228.344C223.594 228.422 191.25 239.828 191.406 279.594V287.25C191.25 326.938 223.594 338.422 263.125 338.5C302.578 338.422 334.922 326.938 334.766 287.25V279.594C334.766 239.906 302.656 228.344 263.125 228.344ZM293.828 284.672C294.062 301.859 279.844 304.984 263.125 305.219C246.328 304.984 232.109 301.859 232.344 284.672V282.094C232.109 264.984 246.328 261.859 263.125 261.625C279.844 261.859 294.062 264.984 293.828 282.094V284.672ZM449.453 286.547L403.359 230.922H347.031V335.922H387.969V271.781L444.375 335.922H490.469V230.922H449.453V286.547ZM547.266 265.531C547.266 257.172 562.891 255.297 575.625 255.297C588.438 255.297 599.297 257.25 603.984 265.531H646.875C642.969 232.719 612.422 228.578 575.625 228.344C538.75 228.344 504.375 235.531 504.375 265.531C504.297 291.781 545.469 293.812 574.766 295.297C591.25 296.078 603.984 296.781 603.984 301.391C603.984 309.516 588.359 311.625 575.625 311.625C562.812 311.625 551.953 309.516 547.266 301.391H504.375C508.281 333.969 538.828 338.422 575.625 338.5C612.5 338.5 646.875 331.391 646.875 301.391C646.953 275.062 605.781 273.031 576.484 271.547C560 270.766 547.266 270.141 547.266 265.531Z" fill="#66E848"/>
<path d="M306.182 299.444C310.903 291.807 310.96 291.173 302.434 290.407C291.452 289.418 282.437 285.034 274.481 277.712C266.911 270.746 259.363 263.733 251.423 257.209C248.028 254.419 243.799 252.475 239.685 250.796C237.154 249.763 235.591 248.917 234.85 245.956C231.796 233.735 225.196 223.303 216.763 214.215C213.558 210.763 208.773 208.75 204.629 206.21C200.16 203.469 195.428 201.123 191.139 198.135C188.464 196.271 186.377 193.552 184.06 191.184C183.432 190.541 183.037 189.628 182.338 189.102C176.383 184.616 170.381 180.191 164.101 176.144C161.482 173.661 166.036 166.057 157.833 166.892C146.613 141.841 123.543 129.096 102 114.74C102.303 114.272 102.607 113.804 102.91 113.336C112.236 119.466 122.354 124.684 130.705 131.939C144.001 143.49 159.337 150.731 175.453 156.778C179.27 158.21 181.587 160.002 183.18 164.01C187.68 175.337 196.613 183.122 206.079 190.239C210.262 193.386 214.782 196.082 219.103 199.048C220.413 199.947 222.006 200.83 222.722 202.133C225.796 207.735 230.916 209.91 236.66 211.545C238.637 212.109 240.632 213.634 241.97 215.255C250.501 225.57 259.635 234.87 273.64 237.333C275.338 237.631 276.968 238.664 278.488 239.588C288.844 245.875 299.295 252.02 309.441 258.632C315.274 262.434 320.887 263.805 327.712 259.533C333.755 273.294 345.497 281.254 356.613 289.911C358.089 291.06 358.86 293.804 358.987 295.87C359.338 301.614 361.308 306.155 366.503 309.601C366.879 306.097 367.177 303.307 367.604 299.332C373.718 304.972 378.63 309.502 383.646 314.127C358.886 319.71 326.086 313.518 306.182 299.444Z" fill="#EBE7E3"/>
<path d="M207.326 77.2337C205.031 72.6501 203.566 67.9764 200.686 64.4602C197.797 60.9333 193.499 58.5621 190.086 55C200.446 59.0367 210.911 62.8282 221.128 67.2037C227.172 69.7919 233.109 70.9281 239.585 69.7037C240.904 69.4549 243.289 69.8854 243.735 70.7481C247.093 77.2602 252.693 79.8537 259.365 80.3089C259.111 82.7966 258.888 84.9967 258.583 87.9871C263.118 87.1103 266.885 86.7239 270.424 85.6089C274.633 84.2821 278.118 85.0425 281.592 87.5443C289.365 93.1424 297.23 98.61 305.07 104.113C306.386 105.037 307.728 106.581 309.114 106.645C323.585 107.31 334.403 115.701 345.322 123.709C349.476 126.756 353.163 129.727 358.848 128.434C361.213 127.896 363.872 128.656 366.398 128.825C372.786 129.254 377.954 130.71 382.368 136.67C389.922 146.864 401.564 152.285 412.43 158.459C414.929 159.879 416.752 162.774 418.428 165.295C422.192 170.959 425.58 176.873 429.299 182.568C431.118 185.352 433.126 188.081 435.442 190.451C437.019 192.065 439.146 193.346 441.26 194.186C444.946 195.648 448.814 196.656 452.606 197.856C457.856 199.517 463.287 200.504 465.029 207.349C465.542 209.364 469.112 211.345 471.624 211.981C482.828 214.812 492.696 219.518 499.539 229.288C500.033 229.994 500.805 230.952 501.504 231C508.4 231.478 510.276 236.423 513.086 241.81C519.86 254.8 527.139 268.571 542.615 272.542C552.576 275.098 557.837 280.832 562.749 288.909C567.221 296.267 573.202 302.708 578.532 309.539C579.708 311.046 580.948 312.503 582.999 315.01C579.648 314.691 577.243 315.116 575.578 314.197C564.937 308.331 554.401 302.27 543.996 295.998C542.424 295.051 541.177 292.81 540.698 290.935C538.848 283.685 535.904 277.95 527.572 276.229C525.045 275.707 522.47 273.022 520.893 270.672C509.599 253.844 495.513 240.126 474.791 237.57C464.264 236.271 457.98 233.126 452.301 223.944C445.2 212.464 432.888 206.144 420.193 201.98C409.943 198.618 399.269 196.49 388.708 194.163C385.772 193.515 384.128 192.587 382.92 189.637C376.879 174.898 364.731 167.778 350.015 164.106C349.16 163.893 348.215 163.946 347.324 164.02C346.825 164.062 346.352 164.403 345.555 164.74C345.627 165.551 345.546 166.446 345.819 167.213C346.081 167.947 346.71 168.549 347.693 169.93C345.604 169.424 344.428 169.025 343.22 168.866C337.169 168.072 333.89 165.631 332.689 158.684C330.938 148.556 323.537 141.274 314.83 136.528C304.109 130.685 292.753 125.946 281.444 121.276C277.708 119.732 275.573 118.307 274.1 114.115C271.312 106.177 267.086 98.7441 263.37 90.9141C260.899 91.5969 259.163 92.5867 257.543 92.4244C253.425 92.0098 249.005 91.858 245.347 90.1908C238.063 86.8721 232.834 79.8855 224.303 78.3576C222.574 78.0488 221.35 74.919 219.206 72.2249C215.924 73.6081 211.899 75.3053 207.326 77.2337Z" fill="#EBE7E3"/>
<path d="M483.26 314.989C476.248 314.989 469.234 315.076 462.227 314.901C461.104 314.873 459.816 313.868 458.936 312.984C454.039 308.065 450.013 301.736 444.248 298.335C433.094 291.757 421.012 286.739 409.21 281.298C408.026 280.751 405.694 281.229 404.636 282.117C398.151 287.545 390.507 288.947 381.966 289.422C380.205 277.926 374.604 268.337 368.093 259.189C367.365 258.164 366.737 256.972 365.777 256.222C353.15 246.362 340.471 236.566 328.075 226.963C326.738 231.873 326.909 232.15 340.066 247.436C334.564 241.977 328.377 237.041 323.716 230.94C316.492 221.485 307.612 215.201 296.147 212.369C294.927 212.067 293.807 211.36 292.586 211.067C285.565 209.387 281.163 206.067 278.815 198.258C275.603 187.572 266.151 181.538 256.802 176.048C254.233 174.54 252.242 171.974 249.599 170.687C246.147 169.004 242.238 168.283 238.672 166.799C237.044 166.122 235.483 164.828 234.389 163.426C232.638 161.179 231.86 157.785 229.692 156.318C221.141 150.528 218.668 141.054 214.318 132.694C214.025 132.129 213.436 131.718 211.807 131.586C212.748 136.068 213.686 140.549 214.626 145.032C214.341 145.14 214.057 145.248 213.771 145.357C211.109 140.133 208.449 134.909 205.668 129.45C203.945 130.544 202.468 131.482 200.63 132.648C192.568 120.352 180.984 113.496 167.132 109.447C161.704 107.86 159.33 109.128 157.635 115.51C142.338 98.0202 127.771 81.3641 113.203 64.7081C113.593 64.306 113.983 63.9021 114.373 63.5C118.478 66.4753 122.304 69.9726 126.737 72.3324C144.256 81.6516 161.823 90.9038 179.659 99.5916C189.342 104.308 198.649 109.107 205.66 117.639C211.003 124.142 217.682 127.9 226.626 128.475C232.244 128.837 237.681 132.002 243.972 134.175C242.31 136.602 241.352 137.643 240.807 138.868C239.385 142.062 240.888 143.547 244.455 143.54C246.953 143.535 249.567 144.27 251.929 145.189C261.256 148.821 270.503 152.657 280.874 156.861C282.34 168.791 292.573 172.232 304.19 173.523C307.66 173.909 309.105 174.99 309.69 178.501C310.925 185.912 314.795 191.145 322.284 194.041C332.48 197.985 342.405 202.408 353.307 199.651C358.897 206.043 364.316 212.24 369.637 218.323C368.989 219.856 368.285 221.522 367.583 223.187C369.437 223.552 371.297 223.893 373.144 224.286C379.468 225.635 385.79 227.004 391.979 229.198C387.164 230.82 381.392 229.674 379.597 237.14C394.72 235.131 407.409 240.381 419.768 247.004C423.106 248.792 425.23 250.979 426.359 254.896C429.294 265.073 435.791 273.346 443.354 280.325C454.22 290.355 465.923 299.483 477.303 308.954C479.353 310.66 481.569 312.166 483.708 313.764C483.557 314.173 483.408 314.582 483.26 314.989Z" fill="#EBE7E3"/>
</svg>
