<svg width="20" height="17" viewBox="0 0 20 17" fill="none" xmlns="http://www.w3.org/2000/svg">
<path d="M19.1991 2.39937C18.48 2.72538 17.7174 2.93949 16.9366 3.03461C17.7596 2.53012 18.3755 1.73616 18.6697 0.800674C17.8973 1.27179 17.0506 1.60195 16.168 1.78055C15.5751 1.13043 14.7893 0.699271 13.9328 0.554096C13.0762 0.408921 12.1968 0.557867 11.4313 0.977779C10.6659 1.39769 10.0572 2.06504 9.69995 2.87608C9.34271 3.68712 9.25691 4.59641 9.45589 5.46259C7.88958 5.38212 6.3573 4.96495 4.95851 4.23814C3.55973 3.51133 2.32571 2.49113 1.33658 1.24379C0.986458 1.86015 0.802469 2.56082 0.803454 3.27403C0.803454 4.67386 1.49859 5.91053 2.55542 6.63458C1.92999 6.6144 1.31834 6.44129 0.771429 6.12968V6.17988C0.771617 7.11216 1.08638 8.0157 1.66234 8.73728C2.2383 9.45886 3.04001 9.95408 3.93155 10.139C3.35097 10.3002 2.7422 10.324 2.15133 10.2085C2.4027 11.011 2.89263 11.7128 3.55252 12.2157C4.21241 12.7185 5.00923 12.9973 5.8314 13.013C5.01427 13.6707 4.07866 14.157 3.07807 14.4439C2.07747 14.7308 1.03152 14.8127 0 14.685C1.80066 15.8719 3.89679 16.502 6.03768 16.5C13.2838 16.5 17.2465 10.3475 17.2465 5.01175C17.2465 4.83797 17.2418 4.66227 17.2342 4.49043C18.0055 3.91908 18.6712 3.21129 19.2 2.40034L19.1991 2.39937Z" fill="#23272A"/>
</svg>
